
<svg xmlns="http://www.w3.org/2000/svg" xml:space="preserve" style="enable-background:new 0 0 60 60" viewBox="0 0 60 60" fill="#ff6f00"><path d="m19.603 21.297-.257.093 3.45.722c2.81.59 5.825.888 8.957.888 1.615 0 3.197-.084 4.737-.241 2.638-.238 5.064-.677 7.235-1.267l.273-.056-.034-.013C50.783 19.518 55 16.143 55 13c0-4.424-8.603-9-23-9S9 8.576 9 13c0 3.076 4.04 6.372 10.603 8.297zm8.857-4.402c-1.623-.529-2.546-1.435-2.746-2.692l-.108-.679-.673-.143a1.106 1.106 0 0 1-.333-.12l.141-.462c.036-.066.253-.25.663-.368l.449-.128.19-.426c.198-.444.472-.845.813-1.19.15-.152.274-.265.374-.356.329-.3.544-.551.646-.875 1.19.393 2.521.434 3.443.395.143-.006.288-.009.436-.009 4.261 0 5.301 1.169 5.712 2.048l.193.414.439.125c.412.117.631.302.66.352l.148.481a1.11 1.11 0 0 1-.333.119l-.674.142-.108.68c-.2 1.257-1.124 2.163-2.746 2.692l-.777.253.214 1.858c.076.65.554 1.215 1.249 1.475l.734.275c-.24.026-.489.036-.732.057a48.68 48.68 0 0 1-3.735.153c-1.74 0-3.376-.089-4.911-.245l.661-.239c.709-.256 1.197-.825 1.273-1.484l.213-1.85-.775-.253zM32 6c13.982 0 21 4.488 21 7 0 2.06-4.316 5.6-12.379 7.171l-4.17-1.562-.012-.104c2.005-.868 2.854-2.203 3.191-3.371.47-.206.837-.515 1.064-.9a1.76 1.76 0 0 0 .165-1.424l-.189-.616c-.201-.654-.786-1.211-1.6-1.542-1.476-2.507-4.854-2.809-7.317-2.809-.175 0-.348.004-.518.011-1.118.045-2.13-.074-2.852-.337-.407-.148-.569-.251-.619-.288-.416-.308-.952-.268-1.299-.093l-.603.342v.616c0 .193.014.423.057.675l.007.044a1.604 1.604 0 0 0-.047.042c-.119.109-.267.244-.446.425-.407.412-.75.875-1.022 1.382-.801.332-1.376.884-1.576 1.531l-.189.617c-.148.484-.09.99.166 1.424.227.385.594.694 1.063.9.337 1.168 1.187 2.503 3.191 3.371l-.012.103-4.112 1.484C15.155 18.481 11 15.024 11 13c0-2.512 7.018-7 21-7z"/><path d="M54 29.647v-.252c3.155-2.219 5-4.954 5-7.947V13C59 5.589 47.393 0 32 0S5 5.589 5 13v2.27C1.738 17.456 0 20.116 0 23v8.448c0 3.297 2.235 6.283 6 8.609v6.391C6 54.047 17.86 60 33 60s27-5.953 27-13.552V38c0-3.185-2.086-6.059-6-8.353zM58 38c0 6.393-11.682 12-25 12a48.65 48.65 0 0 1-1.714-.035c-.169-.006-.338-.012-.507-.02a44.396 44.396 0 0 1-2.423-.176c-.139-.013-.278-.028-.416-.042-8.227-.885-15.225-3.852-18.286-7.6-.04-.05-.083-.099-.122-.15-.046-.059-.087-.119-.132-.179 1.407.6 2.938 1.13 4.581 1.575 4.439 2.92 11.346 4.592 19.019 4.592 13.554 0 23-5.252 23-9.965 0-1.389-.844-2.772-2.448-4.032.026-.071.044-.144.068-.216.034-.104.069-.207.098-.311.034-.121.062-.242.09-.364.024-.105.049-.21.069-.316.023-.123.038-.247.054-.37.014-.107.029-.213.039-.32.003-.031.009-.062.011-.093C56.05 33.377 58 35.39 58 38zM37.131 51.836l.089-.008a50.655 50.655 0 0 0 2.133-.223c.555-.07 1.106-.145 1.647-.232v5.992a48.953 48.953 0 0 1-4 .478v-5.997l.131-.01zM43 51.005c.057-.012.11-.026.166-.038.538-.114 1.07-.234 1.59-.365.068-.017.134-.036.202-.054.351-.09.699-.184 1.041-.281v5.989a41.11 41.11 0 0 1-3 .74v-5.991zm5-1.371.16-.056.224-.082a35.22 35.22 0 0 0 1.214-.465l.337-.137.066-.027v5.963c-.638.277-1.304.54-2 .786v-5.982zm4-1.698c.172-.088.338-.18.505-.27.097-.052.194-.104.289-.157.386-.216.761-.438 1.12-.666l.085-.053v5.825a19.25 19.25 0 0 1-2 1.243v-5.922zM12 46.79c.623.399 1.298.774 2 1.135v5.933a19.42 19.42 0 0 1-2-1.243V46.79zm-6-15 .085.053c.36.228.734.45 1.12.666.095.053.193.105.289.157.167.091.333.182.505.27V38H6.562c-.193-.127-.38-.255-.562-.385V31.79zm4.403 2.24c.396.161.8.316 1.214.465.075.027.148.056.224.082l.16.056v5.981a30.747 30.747 0 0 1-2-.786v-5.963l.066.027c.11.048.223.093.336.138zm4.84 1.571c.52.131 1.052.251 1.59.365l.166.038v5.991a48.584 48.584 0 0 1-1.754-.402A40.85 40.85 0 0 1 14 41.255v-5.989c.342.098.69.191 1.041.281.068.018.134.037.202.054zm5.836 1.056a50.92 50.92 0 0 0 1.7.171l.089.008.131.009v5.984a52.053 52.053 0 0 1-2.048-.191c-.326-.038-.647-.085-.969-.129-.332-.046-.655-.104-.983-.156v-5.98a46.63 46.63 0 0 0 2.08.284zM27 37c.671 0 1.336-.023 2-.049v6.007l-.063.002c-.642.024-1.286.04-1.937.04-.67 0-1.334-.036-2-.062V36.96c.044.002.09.001.134.003.617.022 1.238.037 1.866.037zM7 18.289c.016.02.035.039.051.058.222.277.461.55.715.818.057.06.117.118.175.177.226.229.463.454.711.676.059.053.115.106.176.158.058.05.114.099.172.147v5.571c-1.285-1.376-2-2.881-2-4.446v-3.159zm4 3.501.085.053c.36.228.734.45 1.12.666.095.053.193.105.289.157.167.091.333.182.505.27v5.922a19.42 19.42 0 0 1-2-1.243V21.79zm4 2.076.066.027c.111.047.224.092.337.137.396.161.8.316 1.214.465.075.027.148.056.224.082l.16.056v5.981a30.747 30.747 0 0 1-2-.786v-5.962zm4 1.4c.342.098.69.191 1.041.281.068.018.134.037.202.054.52.131 1.052.251 1.59.365l.166.038v5.991a41.11 41.11 0 0 1-3-.74v-5.989zm5 1.106a46.63 46.63 0 0 0 2.08.284 50.92 50.92 0 0 0 1.7.171l.089.008.131.009v5.997a48.517 48.517 0 0 1-4-.478v-5.991zM32 27c.628 0 1.249-.015 1.866-.037.044-.002.09-.001.134-.003v5.977c-.666.026-1.329.063-2 .063a52.84 52.84 0 0 1-2-.042V26.96c.044.002.09.001.134.003.617.022 1.238.037 1.866.037zm4.22-.172a50.655 50.655 0 0 0 2.133-.223c.555-.07 1.106-.145 1.647-.232v5.979c-.376.06-.744.13-1.126.182-.2.027-.398.056-.6.081-.749.092-1.51.157-2.274.216v-5.984l.131-.009c.03-.004.059-.008.089-.01zm7.537-1.227c.068-.017.134-.036.202-.054.351-.09.699-.184 1.041-.281v5.989c-.128.037-.257.073-.386.108l-.004.001c-.224.062-.45.124-.678.183-.551.142-1.111.273-1.681.395l-.251.053v-5.991c.057-.012.11-.026.166-.038a42.665 42.665 0 0 0 1.591-.365zm3.627-1.105a35.22 35.22 0 0 0 1.214-.465l.337-.137.066-.027v5.963c-.638.277-1.304.54-2 .786v-5.981l.16-.056.223-.083zm4.41-1.988c.386-.216.761-.438 1.12-.666l.085-.053v5.825a19.25 19.25 0 0 1-2 1.243v-5.922c.172-.088.338-.18.505-.27.098-.052.195-.104.29-.157zM24.527 44.943l.113.004.128.005.252.009A56.18 56.18 0 0 0 27 45c.468 0 .932-.006 1.393-.017.151-.004.299-.011.449-.016l.187-.007.274-.01c.155-.006.311-.01.465-.018.18-.009.358-.022.537-.033.271-.016.543-.03.811-.05.197-.015.391-.033.587-.05.248-.021.497-.041.742-.065.196-.019.388-.043.582-.064.241-.027.484-.052.723-.082.196-.024.388-.053.582-.079.232-.032.464-.062.693-.097.195-.029.386-.062.578-.094.225-.037.45-.072.672-.112.192-.034.38-.072.57-.108.216-.041.434-.082.647-.126.19-.039.377-.082.565-.123.209-.046.418-.091.624-.139.185-.044.367-.09.549-.136.204-.051.408-.101.608-.154.178-.047.352-.097.528-.146.199-.056.399-.111.595-.17.174-.052.345-.106.516-.16.191-.06.381-.119.568-.181.17-.056.337-.115.504-.173.183-.064.366-.127.545-.193.165-.06.326-.123.487-.185.176-.068.352-.136.524-.206.157-.064.311-.13.466-.195.17-.073.341-.145.507-.22.15-.067.297-.136.444-.205a24.083 24.083 0 0 0 3.009-1.672 25.257 25.257 0 0 0 .749-.521 17.626 17.626 0 0 0 1.348-1.097 12.35 12.35 0 0 0 .596-.574 13.613 13.613 0 0 0 .542-.59c.081-.095.162-.19.239-.286a11.35 11.35 0 0 0 .621-.852C53.51 36.563 54 37.339 54 38c0 2.704-7.412 7.965-21 7.965-4.115 0-7.484-.469-10.179-1.12.562.043 1.132.073 1.706.098zM42 40.615v-6.022l.191-.069c.367-.131.742-.255 1.097-.396.244-.097.472-.206.711-.308v6.009c-.637.277-1.303.54-1.999.786zm-4.217-4.812c.419-.096.844-.185 1.253-.292.328-.086.641-.188.963-.281v6.025a41.11 41.11 0 0 1-3 .74v-6.01c.266-.056.523-.122.784-.182zM46 38.858v-5.764a36.047 36.047 0 0 0 2-.663v5.184a19.42 19.42 0 0 1-2 1.243zm-14.014-2.102c.33-.033.652-.082.979-.121.482-.057.968-.108 1.443-.18.2-.03.393-.071.592-.104v6.014l-.253.041c-.299.046-.6.091-.904.132-.235.032-.469.066-.707.095a48.594 48.594 0 0 1-2.094.207l-.043.003V36.83c.329-.027.661-.042.987-.074zM52 31.448c0 .761-.172 1.507-.493 2.231l-.091.188c-.297.617-.709 1.212-1.206 1.786-.06.068-.115.137-.178.204l-.032.032v-4.263c.7-.311 1.369-.639 2-.985v.807zM16 48.864c.643.271 1.31.527 2 .767v5.984a30.747 30.747 0 0 1-2-.786v-5.965zm4 1.395c.968.277 1.964.531 3 .746v5.991a41.11 41.11 0 0 1-3-.74v-5.997zm5 1.112c.156.025.318.044.476.068a50.5 50.5 0 0 0 3.009.36c.172.015.342.032.515.046v5.999a48.517 48.517 0 0 1-4-.478v-5.995zm32-33.082v3.16c0 1.565-.715 3.07-2 4.446v-5.571c.058-.048.114-.097.171-.146.06-.052.117-.106.176-.158.249-.222.486-.447.711-.676.058-.059.119-.118.175-.177.255-.268.493-.541.715-.818.017-.022.036-.041.052-.06zM32 2c14.019 0 25 4.832 25 11 0 6.393-11.682 12-25 12S7 19.393 7 13C7 6.832 17.981 2 32 2zM5 17.734v3.714c0 .231.012.46.034.688.007.076.022.151.031.227.019.151.038.302.066.452.017.089.041.177.062.266.031.134.061.269.099.402.027.094.061.187.092.281.041.125.082.25.13.374.037.097.08.192.121.288.051.119.103.239.16.357.047.096.098.191.149.286.062.116.124.231.191.345a11.284 11.284 0 0 0 .396.618 10.465 10.465 0 0 0 .452.604 13.927 13.927 0 0 0 .508.59 12.534 12.534 0 0 0 .835.834c.11.1.223.2.338.298.098.084.195.169.296.252.119.098.244.194.368.291.104.081.207.162.315.241.13.096.265.19.4.284.11.077.217.154.33.229.142.095.29.188.438.281.113.071.223.144.339.214.159.097.325.19.49.285.111.063.218.128.331.19.205.113.417.222.629.331.079.041.155.083.235.123.293.147.593.29.899.43.106.048.217.094.325.142.206.091.411.182.623.27.131.054.267.106.4.159.194.077.387.155.586.23.146.055.295.107.443.16.193.069.385.139.581.206.155.053.313.103.471.154.196.064.391.127.59.188.163.05.329.098.494.146.199.058.399.116.601.172.17.047.341.091.513.136a36.81 36.81 0 0 0 1.779.423 47.261 47.261 0 0 0 4.961.791c.186.02.371.041.558.059.25.024.502.045.754.066.186.015.37.032.557.045.263.019.529.034.795.049.177.01.353.022.532.031l.113.007c-.797.037-1.601.057-2.41.057-13.318 0-25-5.607-25-12 0-2.203 1.415-3.973 3-5.266zM2 31.448v-3.16c.016.02.035.039.051.058.222.277.461.55.715.818.057.06.117.118.175.177.226.229.463.454.711.676.059.053.115.106.176.158.058.051.114.1.172.148v5.571c-1.285-1.376-2-2.881-2-4.446zm6 15v-3.16a14.128 14.128 0 0 0 2 2.026v5.579c-1.285-1.375-2-2.88-2-4.445zm23 11.51V51.96c.048.002.097.001.145.003A51.75 51.75 0 0 0 33 52c.628 0 1.249-.015 1.866-.037.044-.002.09-.001.134-.003v5.998c-.661.025-1.327.042-2 .042s-1.339-.017-2-.042zm27-14.669v3.16c0 1.565-.715 3.07-2 4.446v-5.571c.058-.048.114-.097.171-.146.06-.052.117-.106.176-.158.249-.222.486-.447.711-.676.058-.059.119-.118.175-.177.255-.268.493-.541.715-.818.017-.022.036-.041.052-.06z"/></svg>