<svg xmlns="http://www.w3.org/2000/svg" width="86.4" height="100"><path style="fill:#fff" d="M85.3 20.57c-.684-.532-1.556-.654-2.326-.319l-37.17 16.1c-1.616.703-3.639 1.042-5.717 1.042-2.897.008-5.895-.667-7.984-1.586a9.524 9.524 0 0 1-1.813-.998c.162-.079.346-.162.562-.246L64.67 19.926l5.05 2.159v-6.308c0-.939-.398-1.829-1.082-2.354-.685-.532-1.56-.654-2.322-.319l-37.21 16.09c-1.146.466-2.131 1.031-2.967 1.86-.819.801-1.527 2.124-1.516 3.593 0 .04.011.105.011.105v56.681c0 .022-.007.049-.007.075 0 .019.007.026.007.045v.061h.008c.083 2.01 1.078 3.288 2.033 4.134 3 2.648 8.05 4.13 13.407 4.25 2.54 0 5.12-.402 7.502-1.409l37.18-16.11c.984-.402 1.623-1.473 1.623-2.649v-56.9c-.002-.938-.407-1.826-1.084-2.358"/><path style="fill:#fff" d="M61.722 9.794c-.067-.849-.413-1.65-1.045-2.138-.68-.532-1.556-.654-2.33-.319l-37.17 16.1c-1.616.699-3.643 1.043-5.718 1.043-2.897.004-5.896-.671-7.985-1.589a9.632 9.632 0 0 1-1.812-.994 7.23 7.23 0 0 1 .562-.246L40.038 7.013l5.04 2.159V2.864c0-.939-.408-1.828-1.092-2.354-.678-.532-1.567-.656-2.332-.319l-37.17 16.09c-1.146.462-2.127 1.028-2.963 1.86-.823.801-1.527 2.124-1.516 3.595a.75.75 0 0 0 .011.103v56.683c0 .022-.004.053-.004.075 0 .015.004.022.004.082v.075h.007c.081 2.01 1.079 3.288 2.033 4.123 3 2.649 8.05 4.085 13.41 4.22 1.447 0 2.901-.188 4.333-.458V34.768a9.842 9.842 0 0 1 2.933-7.142c1.227-1.212 2.724-2.17 4.579-2.909L61.727 9.793"/></svg>