<svg fill="#8247e5" height="5" viewBox="0 0 6 5" width="6" xmlns="http://www.w3.org/2000/svg"><path d="m4.09 1.45c-.1-.06-.23-.06-.34 0l-.78.46-.53.3-.78.46c-.1.06-.23.06-.34 0l-.62-.36c-.1-.06-.17-.17-.17-.29v-.71c0-.12.06-.23.17-.29l.61-.35c.1-.06.23-.06.34 0l.61.35c.1.06.17.17.17.29v.46l.53-.31v-.46c0-.12-.06-.23-.17-.29l-1.13-.6599999c-.1-.05999999-.23-.05999999-.34 0l-1.15.6599999c-.11.06-.17.17-.17.29v1.33c0 .12.06.23.17.29l1.15.66c.1.06.23.06.34 0l.78-.45.53-.31.78-.45c.1-.06.23-.06.34 0l.61.35c.1.06.17.17.17.29v.71c0 .12-.06.23-.17.29l-.61.36c-.1.06-.23.06-.34 0l-.61-.35c-.1-.06-.17-.17-.17-.29v-.46l-.53.31v.46c0 .12.06.23.17.29l1.15.66c.1.06.23.06.34 0l1.15-.66c.1-.06.17-.17.17-.29v-1.33c0-.12-.06-.23-.17-.29z"/></svg>