<svg viewBox="0 0 32 32" fill="currentColor" xmlns="http://www.w3.org/2000/svg"><path d="M30.8455 23.3523L25.8931 28.2112C25.7854 28.3167 25.6552 28.4009 25.5104 28.4584C25.3657 28.5159 25.2095 28.5455 25.0518 28.5455H1.57494C1.46292 28.5455 1.35334 28.5155 1.25966 28.4593C1.16599 28.4031 1.0923 28.3231 1.04765 28.2291C1.003 28.1352 0.989331 28.0313 1.00833 27.9303C1.02733 27.8293 1.07816 27.7356 1.15458 27.6606L6.11072 22.8018C6.21809 22.6966 6.34793 22.6126 6.49219 22.5551C6.63649 22.4976 6.79213 22.4678 6.94953 22.4675H30.425C30.5371 22.4675 30.6466 22.4975 30.7404 22.5537C30.8339 22.6099 30.9076 22.6899 30.9524 22.7839C30.997 22.8779 31.0107 22.9817 30.9917 23.0827C30.9726 23.1837 30.9219 23.2774 30.8455 23.3523ZM25.8931 13.568C25.7854 13.4625 25.6552 13.3783 25.5104 13.3208C25.3657 13.2633 25.2095 13.2337 25.0518 13.2338H1.57494C1.46292 13.2338 1.35334 13.2637 1.25966 13.3199C1.16599 13.3761 1.0923 13.4561 1.04765 13.5501C1.003 13.6441 0.989331 13.7479 1.00833 13.8489C1.02733 13.9499 1.07816 14.0436 1.15458 14.1186L6.11072 18.9774C6.21809 19.0827 6.34793 19.1666 6.49219 19.2242C6.63649 19.2816 6.79213 19.3115 6.94953 19.3117H30.425C30.5371 19.3117 30.6466 19.2817 30.7404 19.2255C30.8339 19.1693 30.9076 19.0893 30.9524 18.9954C30.997 18.9014 31.0107 18.7975 30.9917 18.6965C30.9726 18.5955 30.9219 18.5018 30.8455 18.4269L25.8931 13.568ZM1.57494 10.0779H25.0518C25.2095 10.078 25.3657 10.0484 25.5104 9.99085C25.6552 9.93333 25.7854 9.84918 25.8931 9.74364L30.8455 4.88481C30.9219 4.80988 30.9726 4.71616 30.9917 4.61517C31.0107 4.51418 30.997 4.41031 30.9524 4.31632C30.9076 4.22234 30.8339 4.14233 30.7404 4.08614C30.6466 4.02994 30.5371 4 30.425 4H6.94953C6.79213 4.00025 6.63649 4.03004 6.49219 4.08754C6.34793 4.14504 6.21809 4.22902 6.11072 4.33429L1.15586 9.19312C1.07951 9.26796 1.0287 9.36159 1.00966 9.46245C0.990619 9.56334 1.00418 9.66713 1.04867 9.76107C1.09316 9.85501 1.16666 9.93501 1.26014 9.99129C1.35362 10.0476 1.46303 10.0777 1.57494 10.0779Z"/></svg>