<svg fill="none" height="15" viewBox="0 0 20 15" width="20" xmlns="http://www.w3.org/2000/svg"><path d="m13 3c0 .79565-.3161 1.55871-.8787 2.12132s-1.3257.87868-2.1213.87868c-.79565 0-1.55871-.31607-2.12132-.87868s-.87868-1.32567-.87868-2.12132.31607-1.55871.87868-2.12132c.56261-.562609 1.32567-.87868 2.12132-.87868.7956 0 1.5587.316071 2.1213.87868.5626.56261.8787 1.32567.8787 2.12132zm5 2c0 .53043-.2107 1.03914-.5858 1.41421-.3751.37508-.8838.58579-1.4142.58579s-1.0391-.21071-1.4142-.58579c-.3751-.37507-.5858-.88378-.5858-1.41421s.2107-1.03914.5858-1.41421c.3751-.37508.8838-.58579 1.4142-.58579s1.0391.21071 1.4142.58579c.3751.37507.5858.88378.5858 1.41421zm-4 7c0-1.0609-.4214-2.07828-1.1716-2.82843-.7501-.75014-1.7675-1.17157-2.8284-1.17157-1.06087 0-2.07828.42143-2.82843 1.17157-.75014.75015-1.17157 1.76753-1.17157 2.82843v3h8zm-8-7c0 .53043-.21071 1.03914-.58579 1.41421-.37507.37508-.88378.58579-1.41421.58579s-1.03914-.21071-1.41421-.58579c-.37508-.37507-.58579-.88378-.58579-1.41421s.21071-1.03914.58579-1.41421c.37507-.37508.88378-.58579 1.41421-.58579s1.03914.21071 1.41421.58579c.37508.37507.58579.88378.58579 1.41421zm10 10v-3c.0014-1.0167-.2567-2.01697-.75-2.906.4433-.11346.9068-.12416 1.3549-.03128s.8691.28687 1.2308.56719.6546.63959.8564 1.05029c.2018.4108.3071.8622.3079 1.3198v3zm-11.25-5.906c-.49325.88905-.7514 1.8893-.75 2.906v3h-3v-3c-.000192-.458.10446-.9099.30595-1.3211.20148-.4113.49444-.77097.85643-1.05148.36199-.28052.7834-.47444 1.23193-.5669s.91227-.08101 1.35569.03348z" fill="#fff"/></svg>