<svg fill="none" height="10" viewBox="0 0 12 10" width="12" xmlns="http://www.w3.org/2000/svg"><path d="m.824937 4.30498c3.221223-1.41122 5.369203-2.34159 6.443953-2.79109 3.06861-1.283433 3.70621-1.50637835 4.12181-1.51381863.0915-.00154065.2958.02123843.4282.12925863.1118.091211.1426.214423.1573.300901s.033.283476.0185.437404c-.1663 1.756915-.8859 6.020495-1.2519 7.988265-.1549.83264-.4599 1.11182-.75516 1.13915-.64168.05935-1.12894-.42642-1.75044-.83608-.97252-.64104-1.52193-1.04009-2.46593-1.66562-1.09095-.72291-.38373-1.12023.238-1.76957.16271-.16994 2.98996-2.75581 3.04468-2.99039.00684-.02933.01319-.13869-.05142-.19644-.0646-.05774-.15996-.038-.22878-.02229-.09754.02226-1.65115 1.05484-4.66083 3.09773-.44099.3045-.84042.45286-1.1983.44508-.39453-.00857-1.15345-.22431-1.71763-.40872-.691994-.22618-1.2419738-.34577-1.19408289-.72991.02494449-.20008.29895489-.4047.82202989-.61386z" fill="#fff"/></svg>
