<svg width="14" height="11" viewBox="0 0 14 11" fill="none" xmlns="http://www.w3.org/2000/svg">
<path d="M13.0625 1.25701C12.5821 1.46986 12.0661 1.61368 11.5236 1.67869C12.077 1.34733 12.5016 0.821512 12.7018 0.195598C12.184 0.502802 11.6105 0.726014 11.0001 0.845674C10.5111 0.325613 9.815 0 9.04411 0C7.56447 0 6.36442 1.20005 6.36442 2.68084C6.36442 2.89025 6.38858 3.0939 6.43345 3.29065C4.20536 3.17847 2.23154 2.11131 0.909531 0.490146C0.679416 0.887095 0.547099 1.34733 0.547099 1.83747C0.547099 2.76714 1.02056 3.58807 1.7391 4.06844C1.29958 4.05406 0.88652 3.93382 0.525238 3.73305V3.76756C0.525238 5.06599 1.44858 6.14926 2.67509 6.39548C2.44958 6.45646 2.21313 6.48868 1.96921 6.48868C1.79663 6.48868 1.62807 6.47257 1.46468 6.44151C1.80583 7.50579 2.79533 8.28128 3.96834 8.30199C3.05075 9.0211 1.895 9.44969 0.639721 9.44969C0.423412 9.44969 0.20998 9.43703 0 9.41229C1.18624 10.1734 2.59455 10.6164 4.10756 10.6164C9.03778 10.6164 11.733 6.53298 11.733 2.9915C11.733 2.87644 11.7301 2.76023 11.725 2.64518C12.2485 2.26664 12.7029 1.79548 13.0613 1.25873L13.0625 1.25701Z" fill="white"/>
</svg>
