<svg width="440" height="429" viewBox="0 0 440 429" fill="none" xmlns="http://www.w3.org/2000/svg">
<g clip-path="url(#clip0_147_8)">
<path d="M71.238 96.7757C82.948 92.5763 94.94 89.1597 107.13 86.55C119.21 84.474 131.438 83.318 143.703 83.0924C159.907 82.5039 176.112 82.7246 192.392 83.0924C206.173 83.0924 219.879 83.9016 233.66 83.6809C241.232 83.6809 248.274 81.1797 255.543 81.2532C266.368 80.7755 277.059 78.7426 287.27 75.2208C295.965 72.7031 304.488 69.6564 312.788 66.0986C326.115 60.3605 338.837 53.4453 352.239 47.8543L356.782 46.0887C353.148 43.2932 349.21 40.6448 345.651 38.07L328.841 44.6909C315.918 49.5953 303.121 54.279 290.451 58.742C276.781 62.7159 262.533 64.4805 248.274 63.9652C230.707 64.4066 213.064 64.6273 195.269 64.7745C177.475 64.9216 161.27 63.9652 144.385 64.7745C134.146 65.7399 124.012 67.5612 114.096 70.2183C105.237 72.1311 96.3774 74.4116 87.7452 77.06C79.5938 79.4458 71.6025 82.3204 63.8173 85.6672C53.0649 90.449 42.5397 95.5986 32.0144 100.38C28.3798 106.045 24.9724 111.93 21.8678 117.963C28.3798 114.358 34.8161 110.606 41.631 107.663C51.286 103.507 61.17 99.8721 71.238 96.7757V96.7757Z" fill="#FF6F00"/>
<path d="M79.5673 68.3056C87.8659 64.678 96.3589 61.4856 105.01 58.742C122.166 53.1609 139.972 49.6765 158.014 48.3692C168.994 48.0014 179.974 46.8244 191.029 46.6772C205.416 46.6772 219.879 47.1186 234.341 47.1922C248.804 47.2657 261.298 47.1922 274.852 47.1922C287.818 46.2023 300.569 43.4025 312.713 38.8792C320.285 36.5251 327.175 33.8032 334.293 31.0812C328.69 27.6972 322.935 24.681 317.029 21.959C295.234 27.8081 272.507 29.6543 250.016 27.4029C240.702 26.888 231.237 27.4029 221.847 27.4029C206.703 27.4029 191.559 26.6673 176.415 27.4029C167.051 28.1714 157.777 29.747 148.701 32.1112C139.753 33.9257 130.908 36.1847 122.198 38.8792C111.673 42.1161 101.375 46.2358 91.0769 49.767C83.5048 52.4889 75.9327 55.2109 68.3606 58.2271C60.4363 65.4684 53.095 73.2893 46.4014 81.6211L48.0673 80.8854C58.3654 76.7657 68.9663 72.4989 79.5673 68.3056Z" fill="#FF6F00"/>
<path d="M34.6647 138.635C41.8441 134.972 49.2543 131.753 56.851 128.998C68.4916 125.303 80.3835 122.402 92.4399 120.317C103.934 118.524 115.555 117.614 127.196 117.595C141.81 117.595 156.5 118.625 171.114 118.993C185.086 119.765 199.092 119.765 213.064 118.993C225.207 118.77 237.261 116.913 248.88 113.475C261.904 108.767 275.837 106.56 288.709 101.631C303.853 95.8193 317.938 87.8742 332.703 81.4739C346.842 73.9631 361.94 68.2986 377.606 64.6273C374.274 61.2433 370.791 58.0064 367.232 54.9166L359.66 58.08C349.21 62.4204 338.761 66.9079 328.387 71.469C320.058 75.2208 311.956 79.4877 303.475 82.9453C296.07 85.8619 288.483 88.319 280.758 90.3019C268.091 93.962 255.224 96.9337 242.216 99.2034C231.585 100.371 220.878 100.764 210.186 100.38C196.557 100.38 183.002 99.8654 169.373 99.5712C158.772 99.5712 148.095 98.8355 137.57 99.2034C129.013 99.2034 120.532 100.675 112.052 101.705C104.626 102.462 97.2463 103.591 89.9411 105.089C78.6571 107.535 67.5523 110.706 56.6995 114.579C43.7153 119.669 31.0705 125.541 18.839 132.161L14.2957 134.662C12.024 140.327 9.90386 146.065 8.08655 151.877L14.0685 148.198C20.7586 144.666 27.6333 141.474 34.6647 138.635V138.635Z" fill="#FF6F00"/>
<path d="M66.5433 156.364C79.0372 155.628 91.607 155.481 104.404 155.261C114.929 155.261 125.454 155.261 135.904 155.261C147.489 155.261 158.999 156.143 170.584 155.996C179.368 155.996 188.227 154.893 197.087 154.157C203.144 153.569 209.202 152.98 215.184 151.95C221.378 150.869 227.497 149.419 233.508 147.61C242.292 144.961 251 142.166 259.481 138.855C267.962 135.545 276.139 131.499 284.544 127.526C297.947 121.715 311.501 116.271 324.828 110.385C331.946 107.222 338.609 103.029 345.879 100.086C353.065 96.6764 360.938 94.8491 368.935 94.7347C376.932 94.6202 384.857 96.2214 392.144 99.4241C400.947 104.867 408.86 111.563 415.618 119.287L419.934 123.554C412.617 108.441 403.493 94.218 392.75 81.1797C388.812 80.1053 384.72 79.6581 380.635 79.8555C365.96 80.9075 351.733 85.2378 339.064 92.5089C332.249 96.1872 324.525 98.247 317.332 101.41C310.138 104.574 304.308 108.105 297.568 110.827C284.923 115.903 272.278 120.979 259.254 125.099C246.863 129.187 234.218 132.504 221.393 135.03C212.207 136.223 202.946 136.789 193.679 136.722C184.895 137.163 176.036 137.752 167.177 137.899C158.317 138.046 150.897 137.531 142.794 137.531C124.091 137.531 105.388 137.09 86.7608 138.046C72.9885 139.018 59.4524 142.046 46.6286 147.021C31.5003 152.667 17.1342 160.078 3.84614 169.091C2.78604 174.094 1.87739 179.096 1.12018 184.246C5.73917 181.082 10.3582 177.993 15.1286 175.05C30.3222 164.619 48.0336 158.182 66.5433 156.364V156.364Z" fill="#FF6F00"/>
<path d="M192.392 12.469C214.578 12.469 236.689 11.292 258.875 10.9977C268.946 10.9977 279.017 12.3219 289.163 11.5862H291.284C258.712 0.747471 223.985 -2.54899 189.87 1.95962C155.754 6.46824 123.195 18.6572 94.7872 37.555C112.052 30.9341 129.392 24.3132 147.111 19.09C161.764 14.632 177.037 12.3987 192.392 12.469V12.469Z" fill="#FF6F00"/>
<path d="M419.858 156.953C413.043 149.596 406.758 141.577 399.716 134.368C390.175 124.51 380.105 114.432 364.96 114.137C357.693 114.128 350.484 115.399 343.683 117.889C329.599 122.818 315.969 128.777 302.187 134.368C288.406 139.959 276.669 144.741 264.327 150.111C246.555 158.179 227.914 164.298 208.748 168.355C197.055 170.569 185.21 171.946 173.31 172.475C154.986 173.211 136.661 172.843 118.337 172.99C103.798 172.99 89.3353 172.99 74.9483 173.652C62.7562 174.135 50.6501 175.861 38.8293 178.802C29.5017 181.996 20.6036 186.269 12.3269 191.529C8.08654 193.883 3.9976 196.384 -0.0913462 198.885C-1 203.52 -1 208.081 -1 212.642C10.0279 204.282 22.5946 198.04 36.0276 194.251C47.5904 191.657 59.3796 190.13 71.238 189.69C80.7788 188.954 90.3954 189.69 99.9363 189.69C115.989 189.69 132.042 190.131 148.019 190.057C158.287 190.431 168.569 189.988 178.762 188.733C192.613 186.365 206.295 183.146 219.727 179.096C228.623 176.102 237.344 172.64 245.851 168.723C258.951 163.5 272.05 158.424 285.074 153.054C291.965 150.185 298.401 146.433 305.368 143.784C315.666 139.885 326.343 136.869 336.716 133.117C345.861 130.172 355.74 130.172 364.885 133.117C368.193 134.091 371.208 135.833 373.668 138.193C382.232 146.161 390.25 154.663 397.672 163.647C405.99 173.956 417.268 181.637 430.081 185.717C432.911 186.576 435.794 187.264 438.713 187.777C437.804 180.42 436.593 173.799 435.002 166.958C429.263 164.736 424.094 161.321 419.858 156.953V156.953Z" fill="#FF6F00"/>
<path d="M371.397 231.99C360.098 222.852 349.681 212.731 340.275 201.754C335.52 196.451 329.382 192.491 322.506 190.29C315.631 188.09 308.272 187.73 301.203 189.248C284.321 193.118 267.902 198.69 252.212 205.874C234.493 212.569 216.698 219.116 199.207 226.546C181.366 233.863 162.678 239.05 143.552 241.995C124.957 245.54 105.995 246.923 87.0637 246.115C76.0084 245.379 64.9531 246.115 53.8221 246.115C48.023 245.747 42.2054 245.747 36.4063 246.115C25.5545 247.114 14.9819 250.031 5.20914 254.722L3.16467 255.899C3.99761 259.945 4.90626 263.991 5.96636 267.964C9.40507 266.412 12.9466 265.085 16.5673 263.991C27.4755 261.337 38.7827 260.59 49.9603 261.784C63.4387 262.299 76.9928 261.784 90.5469 260.975C100.466 260.601 110.354 259.642 120.154 258.106C134.548 255.974 148.807 253.051 162.861 249.352C179.746 244.643 196.254 238.611 212.761 232.578C222.907 228.827 232.524 223.456 243.049 219.631C254.483 215.364 266.296 212.274 277.957 208.155C288.687 203.896 300.62 203.453 311.653 206.904C318.062 209.412 323.921 213.082 328.917 217.718C337.701 225.516 344.667 235.006 353.754 242.731C364.231 252.183 377.45 258.271 391.614 260.166C400.067 260.987 408.562 261.331 417.057 261.196L435.002 261.637C436.138 256.635 437.123 251.485 437.956 246.335H419.934C402.538 247.118 385.397 242.052 371.397 231.99V231.99Z" fill="#FF6F00"/>
<path d="M383.512 183.069C376.908 174.257 369.286 166.21 360.796 159.086C355.778 154.924 349.567 152.356 343.001 151.729C329.617 150.886 316.235 153.42 304.156 159.086C287.346 165.413 271.066 173.064 254.407 179.685C237.749 186.306 221.166 193.147 204.129 198.517C191.333 202.382 178.243 205.26 164.981 207.125C153.271 208.841 141.459 209.824 129.619 210.067C120.457 210.067 111.219 209.111 101.981 209.185C94.7872 209.185 87.5937 210.656 80.4002 210.656C73.2067 210.656 66.6947 208.89 59.8798 209.185C51.8341 209.599 43.8473 210.757 36.0276 212.642C28.3037 214.123 20.8172 216.597 13.7656 219.999C8.82101 222.681 4.06533 225.679 -0.469971 228.974C-0.469971 233.093 0.21152 237.14 0.741568 241.186C6.34493 237.728 12.0997 234.491 18.006 231.549C22.8955 229.286 28.1439 227.843 33.5288 227.282C41.9339 226.178 50.3389 225.737 58.8197 225.443C67.3005 225.148 76.2356 225.443 84.9435 225.443C98.4219 225.443 111.976 226.693 125.454 226.031C137.572 225.087 149.628 223.515 161.573 221.323C176.03 219.308 190.205 215.705 203.826 210.582C216.85 205.58 229.647 200.283 242.595 195.06C257.361 189.101 272.126 182.921 287.043 177.257C295.872 173.853 304.961 171.123 314.227 169.091C322.532 166.693 331.432 167.134 339.442 170.342C346.197 173.898 352.351 178.438 357.691 183.804C368.368 194.398 376.924 207.051 390.1 215.07C398.474 220.648 408.278 223.857 418.419 224.339C424.704 224.339 430.989 225.148 437.274 225.443H440C440 221.764 440 218.086 440 214.261C440 212.642 440 210.95 440 209.332C433.987 209.118 428.006 208.379 422.13 207.125C406.606 204.099 392.821 195.512 383.512 183.069Z" fill="#FF6F00"/>
<path d="M374.047 281.426C369.257 280.506 364.567 279.151 360.038 277.38C350.047 273.711 340.871 268.217 333.006 261.196C326.509 255.506 320.507 249.306 315.06 242.657C308.473 236.5 300.376 232.079 291.537 229.813C282.699 227.547 273.411 227.512 264.554 229.709C250.394 234.638 236.083 239.126 221.999 244.423C204.432 250.602 187.167 257.664 169.373 263.182C154.228 267.89 139.084 271.274 123.94 274.511C110.434 277.515 96.7543 279.726 82.9748 281.132C65.9375 282.603 48.7488 282.971 31.6358 283.045C24.9127 283.037 18.226 284.004 11.7969 285.914C13.4627 290.401 15.2043 294.815 17.0974 299.082C18.9147 299.082 20.732 298.641 22.625 298.567C34.4375 297.905 46.3257 298.199 57.9868 296.949C71.3894 295.551 84.6406 293.197 97.8161 290.843C108.255 289.276 118.595 287.14 128.786 284.443C147.186 279.219 165.284 273.26 183.457 267.596C194.739 264.065 206.173 260.239 217.304 256.855C223.135 254.943 228.662 252.147 234.417 250.234C247.354 245.385 261.141 243.036 275.004 243.319C283.03 244.019 290.616 247.189 296.66 252.368C305.065 259.357 312.94 267.081 320.815 274.438C330.049 283.031 341.226 289.405 353.451 293.05C371.321 298.788 389.721 296.654 407.97 297.243L423.114 297.611C424.932 293.418 426.597 289.077 428.188 284.737C419.328 284.737 410.544 284.001 401.761 283.56C392.977 283.118 383.209 282.53 374.047 281.426Z" fill="#FF6F00"/>
<path d="M365.642 319.386C353.674 318.968 341.824 316.938 330.431 313.354C315.814 306.646 302.413 297.676 290.754 286.797C283.091 279.028 273.647 273.13 263.191 269.582C253.819 266.96 243.962 266.407 234.341 267.964C223.214 270.329 212.22 273.251 201.403 276.718C187.394 280.911 173.537 285.472 159.605 289.96C152.032 292.461 144.46 295.404 136.51 297.758C112.881 305.16 88.6349 310.551 64.0445 313.869C51.4748 315.487 38.9051 316.591 26.1839 317.694C28.6827 322.035 31.3329 326.375 34.1346 330.568C45.6442 328.729 57.2296 327.405 68.6635 325.051C83.8077 321.888 98.9519 317.694 114.096 313.722C129.24 309.749 142.87 305.556 156.576 301.51C173.689 296.287 190.726 290.843 207.763 285.693C220.211 281.505 233.54 280.417 246.532 282.53C257.1 285.12 266.753 290.431 274.474 297.905C281.851 304.85 289.693 311.313 297.947 317.253C304.706 321.079 311.832 324.257 319.225 326.743C322.469 328.462 325.969 329.678 329.599 330.348C340.351 331.451 351.103 332.113 361.931 332.408C375.763 332.849 389.62 333.07 403.502 333.07C406.456 328.729 409.257 324.315 411.907 319.754H401.837C389.775 320.331 377.688 320.208 365.642 319.386V319.386Z" fill="#FF6F00"/>
<path d="M317.559 392.511C300.422 392.111 283.339 390.488 266.447 387.656C256.795 385.318 247.608 381.44 239.263 376.179C229.419 370.735 220.636 363.6 211.095 357.641C199.11 349.551 184.706 345.541 170.13 346.238C158.965 347.821 147.913 350.081 137.04 353.006C122.804 356.464 109.25 362.422 95.0144 366.027C87.448 368.123 80.1938 371.165 73.4339 375.076C76.5385 377.724 81.006 382.432 84.1106 385.081C89.443 382.831 94.966 381.034 100.618 379.71C130.149 377.356 148.322 365.659 155.667 364.997C169.911 364.508 183.998 368.007 196.254 375.076C205.87 380.005 214.275 387.288 224.043 391.996C234.596 397.214 245.655 401.403 257.058 404.502C273.716 408.494 290.876 410.153 308.018 409.431C312.41 409.431 319.073 404.723 322.254 403.914C329.223 400.334 335.997 396.405 342.547 392.143C334.218 392.658 325.888 392.805 317.559 392.511Z" fill="#FF6F00"/>
<path d="M331.264 354.919C320.652 354.855 310.091 353.47 299.84 350.799C289.839 347.142 280.39 342.193 271.748 336.086C260.995 329.171 251.303 320.563 240.55 313.575C232.6 308.699 223.374 306.146 213.972 306.218C197.887 306.568 181.973 309.501 166.874 314.899C151.351 319.901 135.45 323.947 119.775 328.361C104.101 332.775 86.8365 338.293 70.3293 342.413C64.6502 343.957 58.8197 344.84 53.0649 346.091C50.9447 346.606 48.976 347.194 47.0072 347.783C49.8089 351.24 52.762 354.551 55.7909 357.861C57.3255 357.221 58.8924 356.656 60.4856 356.169C78.2043 350.725 95.8473 345.061 113.49 339.838C127.877 335.644 142.719 332.481 156.879 327.994C168.11 324.009 179.812 321.414 191.71 320.269C199.813 319.135 208.073 319.725 215.918 321.998C223.762 324.272 231.005 328.175 237.143 333.437C243.915 339.85 251.264 345.66 259.102 350.799C273.648 360.542 290.68 366.194 308.321 367.131C323.465 367.131 338.609 368.455 353.754 368.455H372.835C377.606 364.482 381.24 360.363 385.178 356.096H380.862C364.355 355.802 347.772 355.802 331.264 354.919Z" fill="#FF6F00"/>
<path d="M196.405 410.387C184.517 405.164 178.989 394.203 166.647 390.157C159.68 387.876 147.641 390.892 137.797 394.497C128.102 397.905 117.806 399.405 107.508 398.911C114.723 403.06 122.182 406.794 129.846 410.093C147.913 418.081 167.021 423.625 186.637 426.572C205.787 429.417 225.243 429.764 244.488 427.602C227.964 423.267 211.873 417.506 196.405 410.387V410.387Z" fill="#FF6F00"/>
</g>
<defs>
<clipPath id="clip0_147_8">
<rect width="441" height="429" fill="white" transform="translate(-1)"/>
</clipPath>
</defs>
</svg>
