<svg xmlns="http://www.w3.org/2000/svg" viewBox="67.16000366210938 81.05600000000001 440.67999267578125 443.94379999527837"> <g transform="rotate(0 287.499809976776 255.29184777064253)"><svg xmlns="http://www.w3.org/2000/svg" id="Layer_1" dataName="Layer 1" viewBox="0 0.015052305534482002 58.2400016784668 58.31499099731445" height="208.47169554128504" width="208.20361995355202" y="151.056" x="183.398" preserveAspectRatio="xMinYMin" style="overflow: visible;"><path class="cls-1" d="M9.54,13.17a36.16,36.16,0,0,1,4.74-1.39,31.11,31.11,0,0,1,4.83-.47c2.14-.08,4.28-.05,6.43,0,1.82,0,3.63.11,5.45.08,1,0,1.93-.34,2.89-.33a14.49,14.49,0,0,0,4.19-.82A28.56,28.56,0,0,0,41.44,9c1.76-.78,3.44-1.72,5.21-2.48l.6-.24c-.48-.38-1-.74-1.47-1.09l-2.22.9Q41,7.09,38.49,8a17.2,17.2,0,0,1-5.57.71c-2.32.06-4.65.09-7,.11s-4.49-.11-6.72,0a23.63,23.63,0,0,0-4,.74c-1.17.26-2.34.57-3.48.93a27.2,27.2,0,0,0-3.16,1.17c-1.42.65-2.81,1.35-4.2,2-.48.77-.93,1.57-1.34,2.39.86-.49,1.71-1,2.61-1.4A37.84,37.84,0,0,1,9.54,13.17Z" style="fill: #FFFFFF; fill-opacity: 1;"></path><path class="cls-1" d="M10.64,9.3A33.6,33.6,0,0,1,14,8a28.79,28.79,0,0,1,7-1.41c1.45-.05,2.9-.21,4.36-.23,1.9,0,3.81.06,5.72.07s3.56,0,5.35,0a17.88,17.88,0,0,0,5-1.13c1-.32,1.91-.69,2.85-1.06C43.54,3.78,42.78,3.37,42,3a24,24,0,0,1-8.85.74c-1.23-.07-2.48,0-3.72,0-2,0-4-.1-6,0a20.94,20.94,0,0,0-3.66.64,35.32,35.32,0,0,0-3.5.92c-1.39.44-2.75,1-4.11,1.48-1,.37-2,.74-3,1.15a28.11,28.11,0,0,0-2.9,3.18l.22-.1C7.84,10.45,9.24,9.87,10.64,9.3Z" style="fill: #FFFFFF; fill-opacity: 1;"></path><path class="cls-1" d="M4.71,18.86a25.46,25.46,0,0,1,2.93-1.31,34.75,34.75,0,0,1,4.7-1.18A29.28,29.28,0,0,1,16.93,16c1.93,0,3.87.14,5.8.19a48.75,48.75,0,0,0,5.54,0A17.36,17.36,0,0,0,33,15.44c1.72-.64,3.56-.94,5.26-1.61,2-.79,3.86-1.87,5.81-2.74A24.18,24.18,0,0,1,50,8.8c-.44-.46-.9-.9-1.37-1.32l-1,.43c-1.38.59-2.76,1.2-4.13,1.82-1.1.51-2.17,1.09-3.29,1.56a24.94,24.94,0,0,1-3,1,47,47,0,0,1-5.09,1.21,28.35,28.35,0,0,1-4.23.16c-1.8,0-3.59-.07-5.39-.11-1.4,0-2.81-.1-4.2-.05-1.13,0-2.25.2-3.37.34a28.6,28.6,0,0,0-2.92.46,34.58,34.58,0,0,0-4.39,1.29,44.46,44.46,0,0,0-5,2.39l-.6.34c-.3.77-.58,1.55-.82,2.34l.79-.5A29,29,0,0,1,4.71,18.86Z" style="fill: #FFFFFF; fill-opacity: 1;"></path><path class="cls-1" d="M8.92,21.27c1.65-.1,3.31-.12,5-.15,1.39,0,2.78,0,4.16,0,1.53,0,3.05.12,4.58.1,1.16,0,2.33-.15,3.5-.25.8-.08,1.6-.16,2.39-.3a20.32,20.32,0,0,0,2.42-.59c1.16-.36,2.31-.74,3.43-1.19s2.2-1,3.31-1.54c1.77-.79,3.56-1.53,5.32-2.33.94-.43,1.82-1,2.78-1.4a7.18,7.18,0,0,1,6.11-.09,13.78,13.78,0,0,1,3.1,2.7l.57.58A28.9,28.9,0,0,0,52,11.05a5,5,0,0,0-1.6-.18,12.62,12.62,0,0,0-5.49,1.72c-.9.5-1.92.78-2.87,1.21s-1.72.91-2.61,1.28c-1.67.69-3.34,1.38-5.06,1.94a40.68,40.68,0,0,1-5,1.35,26.16,26.16,0,0,1-3.66.23c-1.16.06-2.33.14-3.5.16s-2.15-.05-3.22-.05c-2.47,0-4.94-.06-7.4.07A17.76,17.76,0,0,0,6.29,20,26.42,26.42,0,0,0,.64,23c-.14.68-.26,1.36-.36,2.06.61-.43,1.22-.85,1.85-1.25A14.25,14.25,0,0,1,8.92,21.27Z" style="fill: #FFFFFF; fill-opacity: 1;"></path><path class="cls-1" d="M25.54,1.71c2.93,0,5.85-.16,8.78-.2,1.33,0,2.66.18,4,.08l.28,0A29.19,29.19,0,0,0,12.65,5.12c2.28-.9,4.57-1.8,6.91-2.51A19.7,19.7,0,0,1,25.54,1.71Z" style="fill: #FFFFFF; fill-opacity: 1;"></path><path class="cls-1" d="M55.58,21.35c-.9-1-1.73-2.09-2.66-3.07-1.26-1.34-2.59-2.71-4.59-2.75a7.94,7.94,0,0,0-2.81.51c-1.86.67-3.66,1.48-5.48,2.24s-3.37,1.41-5,2.14a34.88,34.88,0,0,1-7.34,2.48,32.14,32.14,0,0,1-4.68.56c-2.42.1-4.84.05-7.26.07-1.92,0-3.83,0-5.73.09a23,23,0,0,0-4.77.7,16.28,16.28,0,0,0-3.5,1.73c-.56.32-1.1.66-1.64,1C0,27.68,0,28.3,0,28.92a14.54,14.54,0,0,1,4.89-2.5,24.89,24.89,0,0,1,4.65-.62c1.26-.1,2.53,0,3.79,0,2.12,0,4.24.06,6.35.05a24.89,24.89,0,0,0,4.06-.18,43.94,43.94,0,0,0,5.41-1.31,34.2,34.2,0,0,0,3.45-1.41c1.73-.71,3.46-1.4,5.18-2.13.91-.39,1.76-.9,2.68-1.26,1.36-.53,2.77-.94,4.14-1.45a5.91,5.91,0,0,1,3.72,0,2.81,2.81,0,0,1,1.16.69,35.92,35.92,0,0,1,3.17,3.46,9,9,0,0,0,4.28,3,9.47,9.47,0,0,0,1.14.28c-.12-1-.28-1.9-.49-2.83A5.59,5.59,0,0,1,55.58,21.35Z" style="fill: #FFFFFF; fill-opacity: 1;"></path><path class="cls-1" d="M49.18,31.55a31.92,31.92,0,0,1-4.11-4.11,5.32,5.32,0,0,0-5.16-1.7A32.9,32.9,0,0,0,33.44,28c-2.34.91-4.69,1.8-7,2.81a31.63,31.63,0,0,1-7.35,2.1,31.54,31.54,0,0,1-7.46.56c-1.46-.1-2.92,0-4.39,0a17.65,17.65,0,0,0-2.3,0A11.82,11.82,0,0,0,.82,34.64l-.27.16c.11.55.23,1.1.37,1.64a11.25,11.25,0,0,1,1.4-.54,12.52,12.52,0,0,1,4.41-.3c1.78.07,3.57,0,5.36-.11A32.45,32.45,0,0,0,16,35.1a50.88,50.88,0,0,0,5.64-1.19c2.23-.64,4.41-1.46,6.59-2.28,1.34-.51,2.61-1.24,4-1.76,1.51-.58,3.07-1,4.61-1.56a6.5,6.5,0,0,1,4.45-.17,7.19,7.19,0,0,1,2.28,1.47c1.16,1.06,2.08,2.35,3.28,3.4a9.19,9.19,0,0,0,5,2.37,29,29,0,0,0,3.36.14l2.37.06c.15-.68.28-1.38.39-2.08l-2.38,0A10,10,0,0,1,49.18,31.55Z" style="fill: #FFFFFF; fill-opacity: 1;"></path><path class="cls-1" d="M50.78,24.9a19.38,19.38,0,0,0-3-3.26,4.26,4.26,0,0,0-2.35-1,10.27,10.27,0,0,0-5.13,1c-2.22.86-4.37,1.9-6.57,2.8S29.34,26.27,27.09,27a33.65,33.65,0,0,1-5.17,1.17,36.47,36.47,0,0,1-4.67.4c-1.21,0-2.43-.13-3.65-.12-.95,0-1.9.2-2.85.2s-1.81-.24-2.71-.2a16.76,16.76,0,0,0-3.15.47,11.71,11.71,0,0,0-2.94,1A16.88,16.88,0,0,0,.07,31.14c0,.56.09,1.11.16,1.66.74-.47,1.5-.91,2.28-1.31a6.34,6.34,0,0,1,2.05-.58c1.11-.15,2.22-.21,3.34-.25s2.3,0,3.45,0c1.78,0,3.57.17,5.35.08a45.14,45.14,0,0,0,4.77-.64,25.48,25.48,0,0,0,5.58-1.46c1.72-.68,3.41-1.4,5.12-2.11,1.95-.81,3.9-1.65,5.87-2.42A24.14,24.14,0,0,1,41.63,23a5,5,0,0,1,3.33.17A9.94,9.94,0,0,1,47.37,25c1.41,1.44,2.54,3.16,4.28,4.25a7.24,7.24,0,0,0,3.74,1.26c.83,0,1.66.11,2.49.15h.36c0-.5,0-1,0-1.52,0-.22,0-.45,0-.67a13.25,13.25,0,0,1-2.36-.3A8.33,8.33,0,0,1,50.78,24.9Z" style="fill: #FFFFFF; fill-opacity: 1;"></path><path class="cls-1" d="M49.53,38.27a10.31,10.31,0,0,1-1.85-.55,11.05,11.05,0,0,1-3.57-2.2A21,21,0,0,1,41.74,33a7.09,7.09,0,0,0-6.67-1.76c-1.87.67-3.76,1.28-5.62,2-2.32.84-4.6,1.8-6.95,2.55-2,.64-4,1.1-6,1.54a45.55,45.55,0,0,1-5.41.9c-2.25.2-4.52.25-6.78.26a8.92,8.92,0,0,0-2.62.39c.22.61.45,1.21.7,1.79.24,0,.48-.06.73-.07,1.56-.09,3.13-.05,4.67-.22,1.77-.19,3.52-.51,5.26-.83a37.12,37.12,0,0,0,4.09-.87c2.43-.71,4.82-1.52,7.22-2.29,1.49-.48,3-1,4.47-1.46.77-.26,1.5-.64,2.26-.9a14.07,14.07,0,0,1,5.36-.94,5,5,0,0,1,2.86,1.23c1.11.95,2.15,2,3.19,3a10.82,10.82,0,0,0,4.31,2.53c2.36.78,4.79.49,7.2.57l2,.05c.24-.57.46-1.16.67-1.75-1.17,0-2.33-.1-3.49-.16S50.74,38.42,49.53,38.27Z" style="fill: #FFFFFF; fill-opacity: 1;"></path><path class="cls-1" d="M48.42,43.43a17.09,17.09,0,0,1-4.65-.82A19.73,19.73,0,0,1,38.53,39a9.28,9.28,0,0,0-3.64-2.34,8.64,8.64,0,0,0-3.81-.22,43.7,43.7,0,0,0-4.35,1.19c-1.85.57-3.68,1.19-5.52,1.8-1,.34-2,.74-3.05,1.06a56.51,56.51,0,0,1-9.57,2.19c-1.66.22-3.32.37-5,.52.33.59.68,1.18,1.05,1.75,1.52-.25,3.05-.43,4.56-.75,2-.43,4-1,6-1.54S19,41.55,20.81,41c2.26-.71,4.51-1.45,6.76-2.15a10.4,10.4,0,0,1,5.12-.43,8,8,0,0,1,3.69,2.09,30.8,30.8,0,0,0,3.1,2.63,15.94,15.94,0,0,0,2.81,1.29,4.69,4.69,0,0,0,1.37.49c1.42.15,2.84.24,4.27.28q2.74.09,5.49.09c.39-.59.76-1.19,1.11-1.81H53.2A40.1,40.1,0,0,1,48.42,43.43Z" style="fill: #FFFFFF; fill-opacity: 1;"></path><path class="cls-1" d="M42.07,53.37a46.2,46.2,0,0,1-6.75-.66,11.87,11.87,0,0,1-3.59-1.56c-1.3-.74-2.46-1.71-3.72-2.52a8.73,8.73,0,0,0-5.41-1.55,35.69,35.69,0,0,0-4.37.92c-1.88.47-3.67,1.28-5.55,1.77A12,12,0,0,0,9.83,51c.41.36,1,1,1.41,1.36a13.29,13.29,0,0,1,2.18-.73c3.9-.32,6.3-1.91,7.27-2A9.82,9.82,0,0,1,26.05,51c1.27.67,2.38,1.66,3.67,2.3A23.67,23.67,0,0,0,34.08,55a23.8,23.8,0,0,0,6.73.67c.58,0,1.46-.64,1.88-.75a30.08,30.08,0,0,0,2.68-1.6C44.27,53.39,43.17,53.41,42.07,53.37Z" style="fill: #FFFFFF; fill-opacity: 1;"></path><path class="cls-1" d="M43.88,48.26a16.41,16.41,0,0,1-4.15-.56,15.72,15.72,0,0,1-3.71-2c-1.42-.94-2.7-2.11-4.12-3.06a6.48,6.48,0,0,0-3.51-1,19.26,19.26,0,0,0-6.22,1.18c-2.05.68-4.15,1.23-6.22,1.83S11.6,46,9.42,46.56c-.75.21-1.52.33-2.28.5-.28.07-.54.15-.8.23.37.47.76.92,1.16,1.37a6.56,6.56,0,0,1,.62-.23c2.34-.74,4.67-1.51,7-2.22,1.9-.57,3.86-1,5.73-1.61a18.82,18.82,0,0,1,4.6-1.05,7.46,7.46,0,0,1,6,1.79,20.93,20.93,0,0,0,2.9,2.36,12.67,12.67,0,0,0,6.5,2.22c2,0,4,.18,6,.18h2.52C50,49.56,50.48,49,51,48.42h-.57C48.25,48.38,46.06,48.38,43.88,48.26Z" style="fill: #FFFFFF; fill-opacity: 1;"></path><path class="cls-1" d="M26.07,55.8c-1.57-.71-2.3-2.2-3.93-2.75-.92-.31-2.51.1-3.81.59a10.27,10.27,0,0,1-4,.6,28.3,28.3,0,0,0,2.95,1.52A28.69,28.69,0,0,0,24.78,58a28.72,28.72,0,0,0,7.64.14A37.93,37.93,0,0,1,26.07,55.8Z" style="fill: #FFFFFF; fill-opacity: 1;"></path></svg></g> <g transform="rotate(0 287.5 432.6948015974512)"><svg xmlns="http://www.w3.org/2000/svg" y="410.38980319962405" viewBox="3.200000047683716 24.15999984741211 300.67999267578125 44.6099967956543" x="137.16000366210938" height="44.6099967956543" width="300.67999267578125" style="overflow: visible;"><g fill="#FFFFFF" fill-opacity="1" style=""><path d="M13.28 56.24L3.20 56.24L3.20 24.57L12.78 24.57L12.78 30.39L13.13 30.39Q14.12 27.50 16.47 25.83Q18.82 24.16 22.08 24.16L22.08 24.16Q25.38 24.16 27.73 25.85Q30.08 27.54 30.72 30.39L30.72 30.39L31.05 30.39Q31.93 27.56 34.51 25.86Q37.09 24.16 40.59 24.16L40.59 24.16Q45.08 24.16 47.89 27.04Q50.69 29.91 50.69 34.92L50.69 34.92L50.69 56.24L40.61 56.24L40.61 37.23Q40.61 34.86 39.39 33.61Q38.18 32.36 36.24 32.36L36.24 32.36Q34.16 32.36 32.97 33.72Q31.79 35.07 31.79 37.33L31.79 37.33L31.79 56.24L22.10 56.24L22.10 37.13Q22.10 34.92 20.90 33.64Q19.71 32.36 17.75 32.36L17.75 32.36Q16.43 32.36 15.42 32.99Q14.41 33.62 13.84 34.78Q13.28 35.93 13.28 37.50L13.28 37.50L13.28 56.24ZM71.74 56.83L71.74 56.83Q66.75 56.83 63.17 54.78Q59.60 52.73 57.67 49.05Q55.74 45.37 55.74 40.51L55.74 40.51Q55.74 35.62 57.67 31.94Q59.60 28.26 63.17 26.21Q66.75 24.16 71.74 24.16L71.74 24.16Q76.73 24.16 80.30 26.21Q83.88 28.26 85.81 31.94Q87.74 35.62 87.74 40.51L87.74 40.51Q87.74 45.37 85.81 49.05Q83.88 52.73 80.30 54.78Q76.73 56.83 71.74 56.83ZM71.80 49.23L71.80 49.23Q73.61 49.23 74.87 48.11Q76.13 47.00 76.80 45.02Q77.47 43.04 77.47 40.45L77.47 40.45Q77.47 37.81 76.80 35.83Q76.13 33.85 74.87 32.74Q73.61 31.62 71.80 31.62L71.80 31.62Q69.92 31.62 68.64 32.74Q67.35 33.85 66.68 35.83Q66.01 37.81 66.01 40.45L66.01 40.45Q66.01 43.04 66.68 45.02Q67.35 47.00 68.64 48.11Q69.92 49.23 71.80 49.23ZM107.69 56.83L107.69 56.83Q102.70 56.83 99.12 54.78Q95.55 52.73 93.62 49.05Q91.69 45.37 91.69 40.51L91.69 40.51Q91.69 35.62 93.62 31.94Q95.55 28.26 99.12 26.21Q102.70 24.16 107.69 24.16L107.69 24.16Q112.68 24.16 116.26 26.21Q119.83 28.26 121.76 31.94Q123.69 35.62 123.69 40.51L123.69 40.51Q123.69 45.37 121.76 49.05Q119.83 52.73 116.26 54.78Q112.68 56.83 107.69 56.83ZM107.75 49.23L107.75 49.23Q109.57 49.23 110.82 48.11Q112.08 47.00 112.75 45.02Q113.42 43.04 113.42 40.45L113.42 40.45Q113.42 37.81 112.75 35.83Q112.08 33.85 110.82 32.74Q109.57 31.62 107.75 31.62L107.75 31.62Q105.88 31.62 104.59 32.74Q103.30 33.85 102.63 35.83Q101.96 37.81 101.96 40.45L101.96 40.45Q101.96 43.04 102.63 45.02Q103.30 47.00 104.59 48.11Q105.88 49.23 107.75 49.23ZM138.94 38.18L138.94 38.18L138.94 56.24L128.86 56.24L128.86 24.57L138.45 24.57L138.45 30.39L138.80 30.39Q139.85 27.48 142.38 25.82Q144.92 24.16 148.42 24.16L148.42 24.16Q151.76 24.16 154.23 25.65Q156.69 27.15 158.06 29.82Q159.43 32.49 159.41 36.05L159.41 36.05L159.41 56.24L149.33 56.24L149.33 38.03Q149.35 35.40 148.00 33.91Q146.65 32.43 144.26 32.43L144.26 32.43Q142.67 32.43 141.47 33.12Q140.26 33.81 139.61 35.09Q138.96 36.36 138.94 38.18ZM175.76 68.11L165.68 68.11L165.68 24.57L175.66 24.57L175.66 29.99L175.97 29.99Q176.58 28.55 177.73 27.21Q178.87 25.87 180.66 25.02Q182.44 24.16 184.93 24.16L184.93 24.16Q188.23 24.16 191.11 25.89Q193.98 27.62 195.76 31.23Q197.53 34.84 197.53 40.43L197.53 40.43Q197.53 45.81 195.83 49.43Q194.13 53.06 191.25 54.88Q188.38 56.69 184.87 56.69L184.87 56.69Q182.48 56.69 180.73 55.91Q178.98 55.12 177.79 53.85Q176.60 52.57 175.97 51.10L175.97 51.10L175.76 51.10L175.76 68.11ZM175.55 40.40L175.55 40.40Q175.55 42.96 176.24 44.86Q176.93 46.75 178.24 47.79Q179.55 48.84 181.39 48.84L181.39 48.84Q183.24 48.84 184.54 47.79Q185.84 46.75 186.51 44.86Q187.18 42.96 187.18 40.40L187.18 40.40Q187.18 37.85 186.51 35.97Q185.84 34.10 184.55 33.07Q183.26 32.03 181.39 32.03L181.39 32.03Q179.53 32.03 178.23 33.05Q176.93 34.06 176.24 35.93Q175.55 37.81 175.55 40.40ZM211.75 56.77L211.75 56.77Q208.72 56.77 206.38 55.75Q204.04 54.73 202.69 52.66Q201.34 50.59 201.34 47.45L201.34 47.45Q201.34 44.82 202.27 43.00Q203.20 41.19 204.83 40.05Q206.45 38.92 208.58 38.33Q210.70 37.75 213.11 37.54L213.11 37.54Q215.81 37.29 217.46 37.01Q219.11 36.74 219.86 36.21Q220.62 35.68 220.62 34.71L220.62 34.71L220.62 34.61Q220.62 33.02 219.52 32.16Q218.43 31.29 216.58 31.29L216.58 31.29Q214.58 31.29 213.36 32.16Q212.14 33.02 211.81 34.55L211.81 34.55L202.52 34.22Q202.93 31.33 204.65 29.06Q206.37 26.78 209.39 25.47Q212.41 24.16 216.66 24.16L216.66 24.16Q219.69 24.16 222.25 24.87Q224.80 25.58 226.70 26.93Q228.59 28.28 229.64 30.24Q230.68 32.20 230.68 34.71L230.68 34.71L230.68 56.24L221.19 56.24L221.19 51.82L220.95 51.82Q220.10 53.43 218.79 54.55Q217.48 55.66 215.72 56.22Q213.96 56.77 211.75 56.77ZM214.87 50.18L214.87 50.18Q216.49 50.18 217.80 49.52Q219.11 48.86 219.90 47.69Q220.68 46.53 220.68 44.98L220.68 44.98L220.68 41.97Q220.25 42.20 219.64 42.38Q219.03 42.57 218.31 42.73Q217.59 42.90 216.82 43.02Q216.06 43.15 215.36 43.25L215.36 43.25Q213.94 43.48 212.94 43.95Q211.94 44.42 211.41 45.18Q210.89 45.93 210.89 46.96L210.89 46.96Q210.89 48.53 212.01 49.35Q213.13 50.18 214.87 50.18ZM251.58 68.77L251.58 68.77Q247.07 68.77 243.85 67.51Q240.63 66.26 238.80 64.07Q236.96 61.88 236.59 59.12L236.59 59.12L246.14 58.59Q246.41 59.56 247.14 60.28Q247.87 61.00 249.05 61.39Q250.24 61.78 251.85 61.78L251.85 61.78Q254.38 61.78 256.04 60.56Q257.70 59.33 257.70 56.28L257.70 56.28L257.70 50.71L257.35 50.71Q256.75 52.18 255.54 53.33Q254.32 54.48 252.52 55.14Q250.71 55.80 248.38 55.80L248.38 55.80Q244.92 55.80 242.05 54.19Q239.17 52.57 237.45 49.16Q235.73 45.74 235.73 40.36L235.73 40.36Q235.73 34.82 237.50 31.22Q239.27 27.62 242.15 25.89Q245.02 24.16 248.34 24.16L248.34 24.16Q250.84 24.16 252.62 25.02Q254.40 25.87 255.56 27.21Q256.71 28.55 257.31 29.99L257.31 29.99L257.60 29.99L257.60 24.57L267.64 24.57L267.64 56.36Q267.64 60.38 265.62 63.14Q263.60 65.90 259.97 67.34Q256.34 68.77 251.58 68.77ZM251.89 48.46L251.89 48.46Q253.72 48.46 255.02 47.50Q256.32 46.53 257.02 44.71Q257.72 42.90 257.72 40.36L257.72 40.36Q257.72 37.79 257.03 35.92Q256.34 34.06 255.03 33.05Q253.72 32.03 251.89 32.03L251.89 32.03Q250.01 32.03 248.71 33.07Q247.42 34.10 246.75 35.96Q246.08 37.83 246.08 40.36L246.08 40.36Q246.08 42.90 246.76 44.71Q247.44 46.53 248.72 47.50Q250.01 48.46 251.89 48.46ZM288.85 56.83L288.85 56.83Q283.88 56.83 280.29 54.87Q276.69 52.90 274.76 49.24Q272.83 45.58 272.83 40.53L272.83 40.53Q272.83 35.62 274.77 31.94Q276.71 28.26 280.23 26.21Q283.76 24.16 288.54 24.16L288.54 24.16Q291.92 24.16 294.73 25.21Q297.53 26.26 299.57 28.32Q301.61 30.39 302.74 33.41Q303.88 36.43 303.88 40.32L303.88 40.32L303.88 42.84L276.36 42.84L276.36 36.98L294.50 36.98Q294.48 35.37 293.74 34.12Q292.99 32.86 291.71 32.15Q290.42 31.44 288.75 31.44L288.75 31.44Q287.06 31.44 285.72 32.19Q284.38 32.94 283.59 34.23Q282.81 35.52 282.77 37.15L282.77 37.15L282.77 43.10Q282.77 45.04 283.53 46.50Q284.29 47.95 285.70 48.75Q287.10 49.56 289.04 49.56L289.04 49.56Q290.38 49.56 291.47 49.19Q292.56 48.82 293.34 48.09Q294.13 47.37 294.52 46.32L294.52 46.32L303.78 46.59Q303.20 49.70 301.25 52.00Q299.30 54.30 296.15 55.57Q292.99 56.83 288.85 56.83Z" transform="translate(0, 0)"></path></g></svg></g></svg>